<?xml version='1.0' encoding='ascii'?>
<svg xmlns="http://www.w3.org/2000/svg" height="250" version="1.1" width="250">
    <g id="RenderLayer_LineSet" inkscape:groupmode="lineset" inkscape:label="RenderLayer_LineSet" xmlns:inkscape="http://www.inkscape.org/namespaces/inkscape">
        <g id="strokes" inkscape:groupmode="layer" inkscape:label="strokes" xmlns:inkscape="http://www.inkscape.org/namespaces/inkscape">
            <path d=" M 112.010, 18.796 106.261, 21.658 100.596, 25.378 95.098, 29.902 89.846, 35.162 84.917, 41.083 80.383, 47.579 76.311, 54.554 72.759, 61.907 69.779, 69.530 67.415, 77.313 65.702, 85.142 64.664, 92.903 64.316, 100.482 64.316, 110.482 64.316, 120.482 64.316, 130.482 64.316, 140.482 64.316, 150.482 64.316, 160.482 64.316, 170.482 64.316, 180.482 64.316, 190.482 64.316, 200.482 64.316, 210.482 64.316, 217.856 73.358, 222.127 82.400, 226.398 91.442, 230.669 91.791, 230.834 101.011, 226.964 110.232, 223.094 119.453, 219.224 128.674, 215.354 137.894, 211.483 139.485, 210.816 148.705, 206.946 157.926, 203.076 167.147, 199.206 176.368, 195.335 185.588, 191.465 187.179, 190.798 187.179, 180.798 187.179, 170.798 187.179, 160.798 187.179, 150.798 187.179, 140.798 187.179, 130.798 187.179, 120.798 187.179, 110.798 187.179, 100.798 187.179, 90.798 187.179, 80.798 187.179, 73.424 186.831, 66.136 185.793, 59.247 184.079, 52.857 181.716, 47.058 178.736, 41.936 175.184, 37.565 171.112, 34.008 166.578, 31.319 157.536, 27.047 148.494, 22.776 139.452, 18.505 139.104, 18.340 134.175, 16.556 128.923, 15.704 123.424, 15.797 117.759, 16.832 112.010, 18.796 " fill="none" stroke="rgb(0, 0, 0)" stroke-linecap="butt" stroke-linejoin="round" stroke-opacity="1.0" stroke-width="3.0" />
            <path d=" M 112.010, 18.796 112.011, 18.796 112.011, 18.796 " fill="none" stroke="rgb(0, 0, 0)" stroke-linecap="butt" stroke-linejoin="round" stroke-opacity="1.0" stroke-width="3.0" />
            <path d=" M 112.011, 18.796 112.010, 18.796 112.011, 18.796 121.053, 23.067 130.095, 27.338 139.137, 31.609 139.485, 31.774 130.443, 27.503 121.401, 23.232 112.359, 18.961 112.010, 18.796 112.010, 18.796 112.011, 18.796 " fill="none" stroke="rgb(0, 0, 0)" stroke-linecap="butt" stroke-linejoin="round" stroke-opacity="1.0" stroke-width="3.0" />
            <path d=" M 166.578, 31.319 161.649, 29.535 156.397, 28.683 150.899, 28.775 145.234, 29.811 139.485, 31.774 133.736, 34.636 128.071, 38.357 122.572, 42.880 117.320, 48.141 112.391, 54.062 107.858, 60.557 103.785, 67.532 100.233, 74.885 97.254, 82.509 94.890, 90.292 93.176, 98.120 92.138, 105.881 91.791, 113.460 91.791, 123.460 91.791, 133.460 91.791, 143.460 91.791, 153.460 91.791, 163.460 91.791, 173.460 91.791, 183.460 91.791, 193.460 91.791, 203.460 91.791, 213.460 91.791, 223.460 91.791, 230.834 " fill="none" stroke="rgb(0, 0, 0)" stroke-linecap="butt" stroke-linejoin="round" stroke-opacity="1.0" stroke-width="3.0" />
        </g>
    </g>
</svg>
